<svg width="10" height="4" viewBox="0 0 10 4" fill="none" xmlns="http://www.w3.org/2000/svg">
<mask id="path-1-inside-1_89_2570" fill="white">
<path fill-rule="evenodd" clip-rule="evenodd" d="M0.0404371 0.278615C0.0861289 0.160378 0.166029 0.0705155 0.26262 0.0287304C0.35921 -0.0130547 0.464607 -0.00335215 0.555701 0.0557111L4.99851 2.94147L9.44054 0.0547116C9.48574 0.0247055 9.53505 0.00662281 9.58564 0.00150611C9.63624 -0.00361058 9.68711 0.00433988 9.73533 0.0248992C9.78355 0.0454586 9.82816 0.0782199 9.86659 0.121295C9.90502 0.16437 9.93651 0.216906 9.95925 0.275875C9.98199 0.334843 9.99552 0.399078 9.99906 0.464875C10.0026 0.530673 9.99609 0.596731 9.9799 0.659243C9.96371 0.721754 9.93816 0.779482 9.90472 0.829097C9.87129 0.878713 9.83062 0.919235 9.78508 0.948328L5.17077 3.94704C5.1173 3.98187 5.05832 4 4.99851 4C4.9387 4 4.87971 3.98187 4.82624 3.94704L0.211935 0.948328C0.120966 0.88894 0.0518272 0.78509 0.0196785 0.659547C-0.0124702 0.534004 -0.00500503 0.397015 0.0404371 0.278615Z"/>
</mask>
<path fill-rule="evenodd" clip-rule="evenodd" d="M0.0404371 0.278615C0.0861289 0.160378 0.166029 0.0705155 0.26262 0.0287304C0.35921 -0.0130547 0.464607 -0.00335215 0.555701 0.0557111L4.99851 2.94147L9.44054 0.0547116C9.48574 0.0247055 9.53505 0.00662281 9.58564 0.00150611C9.63624 -0.00361058 9.68711 0.00433988 9.73533 0.0248992C9.78355 0.0454586 9.82816 0.0782199 9.86659 0.121295C9.90502 0.16437 9.93651 0.216906 9.95925 0.275875C9.98199 0.334843 9.99552 0.399078 9.99906 0.464875C10.0026 0.530673 9.99609 0.596731 9.9799 0.659243C9.96371 0.721754 9.93816 0.779482 9.90472 0.829097C9.87129 0.878713 9.83062 0.919235 9.78508 0.948328L5.17077 3.94704C5.1173 3.98187 5.05832 4 4.99851 4C4.9387 4 4.87971 3.98187 4.82624 3.94704L0.211935 0.948328C0.120966 0.88894 0.0518272 0.78509 0.0196785 0.659547C-0.0124702 0.534004 -0.00500503 0.397015 0.0404371 0.278615Z" fill="#FCFCFC"/>
<path d="M0.555701 0.0557111L1.10042 -0.782911L1.09973 -0.783355L0.555701 0.0557111ZM4.99851 2.94147L4.45379 3.78009L4.99865 4.134L5.54342 3.77996L4.99851 2.94147ZM9.44054 0.0547116L9.98548 0.893245L9.99369 0.887796L9.44054 0.0547116ZM9.78508 0.948328L9.24674 0.105564L9.24016 0.109835L9.78508 0.948328ZM5.17077 3.94704L4.62586 3.10855L4.62502 3.10909L5.17077 3.94704ZM4.82624 3.94704L5.37199 3.10909L5.37115 3.10855L4.82624 3.94704ZM0.211935 0.948328L-0.334719 1.78569L-0.332978 1.78682L0.211935 0.948328ZM0.973211 0.639078C0.943439 0.716118 0.858291 0.860603 0.659662 0.946531L-0.134423 -0.88907C-0.526232 -0.719572 -0.771181 -0.395362 -0.892337 -0.081847L0.973211 0.639078ZM0.659662 0.946531C0.437671 1.04256 0.190685 1.01084 0.0116724 0.894778L1.09973 -0.783355C0.738528 -1.01755 0.280748 -1.06867 -0.134423 -0.88907L0.659662 0.946531ZM0.0109867 0.894333L4.45379 3.78009L5.54322 2.10285L1.10042 -0.78291L0.0109867 0.894333ZM5.54342 3.77996L9.98546 0.893204L8.89563 -0.783781L4.45359 2.10298L5.54342 3.77996ZM9.99369 0.887796C9.91273 0.941549 9.80817 0.984102 9.68626 0.996431L9.48503 -0.993419C9.26193 -0.970857 9.05874 -0.892138 8.8874 -0.778373L9.99369 0.887796ZM9.68626 0.996431C9.56357 1.00884 9.44523 0.98831 9.34312 0.944774L10.1275 -0.894976C9.929 -0.97963 9.70891 -1.01606 9.48503 -0.993419L9.68626 0.996431ZM9.34312 0.944774C9.24291 0.902049 9.16984 0.842436 9.12041 0.787035L10.6128 -0.544446C10.4865 -0.685996 10.3242 -0.811132 10.1275 -0.894976L9.34312 0.944774ZM9.12041 0.787035C9.07135 0.732045 9.04269 0.6784 9.0262 0.635614L10.8923 -0.0838648C10.8303 -0.244588 10.7387 -0.403306 10.6128 -0.544446L9.12041 0.787035ZM9.0262 0.635614C9.00959 0.592552 9.00237 0.55316 9.00051 0.51867L10.9976 0.411081C10.9887 0.244996 10.9544 0.0771345 10.8923 -0.0838648L9.0262 0.635614ZM9.00051 0.51867C8.99865 0.484115 9.00178 0.447375 9.01185 0.408507L10.948 0.909978C10.9904 0.746087 11.0066 0.577231 10.9976 0.411081L9.00051 0.51867ZM9.01185 0.408507C9.02185 0.3699 9.04064 0.3219 9.07547 0.270231L10.734 1.38796C10.8357 1.23706 10.9056 1.07361 10.948 0.909978L9.01185 0.408507ZM9.07547 0.270231C9.11032 0.21852 9.16511 0.157743 9.24675 0.10559L10.3234 1.79107C10.4961 1.68073 10.6323 1.53891 10.734 1.38796L9.07547 0.270231ZM9.24016 0.109835L4.62586 3.10855L5.71569 4.78553L10.33 1.78682L9.24016 0.109835ZM4.62502 3.10909C4.72253 3.04558 4.85138 3 4.99851 3V5C5.26525 5 5.51207 4.91815 5.71653 4.78498L4.62502 3.10909ZM4.99851 3C5.14563 3 5.27448 3.04558 5.37199 3.10909L4.28048 4.78498C4.48494 4.91815 4.73176 5 4.99851 5V3ZM5.37115 3.10855L0.756849 0.109835L-0.332978 1.78682L4.28133 4.78553L5.37115 3.10855ZM0.758589 0.110969C0.916211 0.213869 0.971185 0.344173 0.98842 0.411474L-0.949063 0.90762C-0.867531 1.22601 -0.674279 1.56401 -0.334718 1.78569L0.758589 0.110969ZM0.98842 0.411474C0.998372 0.450337 1.00133 0.486844 0.99948 0.520816C0.997634 0.554688 0.990568 0.593862 0.974037 0.636934L-0.893162 -0.079703C-1.01463 0.236774 -1.03145 0.585891 -0.949063 0.90762L0.98842 0.411474Z" fill="#FCFCFC" mask="url(#path-1-inside-1_89_2570)"/>
</svg>
