<svg width="19" height="19" viewBox="0 0 19 19" fill="none" xmlns="http://www.w3.org/2000/svg">
<path d="M13.3 10.9553C12.0828 10.9553 11.4975 11.5199 9.5 11.5199C7.50246 11.5199 6.92143 10.9553 5.7 10.9553C2.55312 10.9553 0 13.0797 0 15.6982V16.6016C0 17.5367 0.91183 18.2955 2.03571 18.2955H16.9643C18.0882 18.2955 19 17.5367 19 16.6016V15.6982C19 13.0797 16.4469 10.9553 13.3 10.9553ZM16.9643 16.6016H2.03571V15.6982C2.03571 14.0184 3.68125 12.6492 5.7 12.6492C6.3192 12.6492 7.32433 13.2138 9.5 13.2138C11.6926 13.2138 12.6766 12.6492 13.3 12.6492C15.3187 12.6492 16.9643 14.0184 16.9643 15.6982V16.6016ZM9.5 10.3906C12.8717 10.3906 15.6071 8.11446 15.6071 5.30896C15.6071 2.50345 12.8717 0.22728 9.5 0.22728C6.12835 0.22728 3.39286 2.50345 3.39286 5.30896C3.39286 8.11446 6.12835 10.3906 9.5 10.3906ZM9.5 1.92117C11.7435 1.92117 13.5714 3.44215 13.5714 5.30896C13.5714 7.17577 11.7435 8.69674 9.5 8.69674C7.25647 8.69674 5.42857 7.17577 5.42857 5.30896C5.42857 3.44215 7.25647 1.92117 9.5 1.92117Z" fill="#E5E5E5"/>
</svg>
