<svg width="20" height="17" viewBox="0 0 20 17" fill="none" xmlns="http://www.w3.org/2000/svg">
<mask id="path-1-inside-1_138_323" fill="white">
<path d="M3.7125 0.396667C3.82986 0.272266 3.97555 0.172392 4.13954 0.103917C4.30354 0.0354411 4.48195 -1.07674e-05 4.6625 2.45308e-09H15.3375C15.5181 -1.07674e-05 15.6965 0.0354411 15.8605 0.103917C16.0245 0.172392 16.1701 0.272266 16.2875 0.396667L19.5487 3.84653C19.8399 4.15461 20 4.54695 20 4.95267V5.24167C20.0001 5.80264 19.8068 6.34961 19.4473 6.80614C19.0877 7.26267 18.5798 7.60594 17.9946 7.78798C17.4094 7.97001 16.776 7.98171 16.1831 7.82144C15.5901 7.66117 15.0673 7.33694 14.6875 6.89407C14.4102 7.21794 14.0548 7.47997 13.6485 7.66011C13.2423 7.84025 12.796 7.93371 12.3438 7.93333C11.8915 7.93379 11.4452 7.84037 11.0389 7.66023C10.6326 7.48008 10.2773 7.218 10 6.89407C9.72274 7.218 9.36736 7.48008 8.9611 7.66023C8.55485 7.84037 8.10849 7.93379 7.65625 7.93333C7.20401 7.93379 6.75765 7.84037 6.3514 7.66023C5.94514 7.48008 5.58976 7.218 5.3125 6.89407C4.93274 7.33694 4.40985 7.66117 3.81692 7.82144C3.22399 7.98171 2.59065 7.97001 2.00541 7.78798C1.42017 7.60594 0.912278 7.26267 0.552728 6.80614C0.193177 6.34961 -6.82482e-05 5.80264 1.80807e-08 5.24167V4.95267C1.57594e-05 4.54695 0.160071 4.15461 0.45125 3.84653L3.71375 0.395533L3.7125 0.396667ZM5.9375 5.24167C5.9375 5.65496 6.11858 6.05133 6.44091 6.34357C6.76324 6.63582 7.20041 6.8 7.65625 6.8C8.11209 6.8 8.54926 6.63582 8.87159 6.34357C9.19392 6.05133 9.375 5.65496 9.375 5.24167C9.375 5.09138 9.44085 4.94724 9.55806 4.84097C9.67527 4.7347 9.83424 4.675 10 4.675C10.1658 4.675 10.3247 4.7347 10.4419 4.84097C10.5592 4.94724 10.625 5.09138 10.625 5.24167C10.625 5.65496 10.8061 6.05133 11.1284 6.34357C11.4507 6.63582 11.8879 6.8 12.3438 6.8C12.7996 6.8 13.2368 6.63582 13.5591 6.34357C13.8814 6.05133 14.0625 5.65496 14.0625 5.24167C14.0625 5.09138 14.1283 4.94724 14.2456 4.84097C14.3628 4.7347 14.5217 4.675 14.6875 4.675C14.8533 4.675 15.0122 4.7347 15.1294 4.84097C15.2467 4.94724 15.3125 5.09138 15.3125 5.24167C15.3125 5.65496 15.4936 6.05133 15.8159 6.34357C16.1382 6.63582 16.5754 6.8 17.0312 6.8C17.4871 6.8 17.9243 6.63582 18.2466 6.34357C18.5689 6.05133 18.75 5.65496 18.75 5.24167V4.95267C18.75 4.8176 18.6968 4.68698 18.6 4.58433L15.3375 1.13333H4.6625L1.4 4.58433C1.30318 4.68698 1.24999 4.8176 1.25 4.95267V5.24167C1.25 5.65496 1.43108 6.05133 1.75341 6.34357C2.07574 6.63582 2.51291 6.8 2.96875 6.8C3.42459 6.8 3.86176 6.63582 4.18409 6.34357C4.50642 6.05133 4.6875 5.65496 4.6875 5.24167C4.6875 5.09138 4.75335 4.94724 4.87056 4.84097C4.98777 4.7347 5.14674 4.675 5.3125 4.675C5.47826 4.675 5.63723 4.7347 5.75444 4.84097C5.87165 4.94724 5.9375 5.09138 5.9375 5.24167ZM1.875 8.5C2.04076 8.5 2.19973 8.5597 2.31694 8.66597C2.43415 8.77224 2.5 8.91638 2.5 9.06667V15.8667H17.5V9.06667C17.5 8.91638 17.5658 8.77224 17.6831 8.66597C17.8003 8.5597 17.9592 8.5 18.125 8.5C18.2908 8.5 18.4497 8.5597 18.5669 8.66597C18.6842 8.77224 18.75 8.91638 18.75 9.06667V15.8667H19.375C19.5408 15.8667 19.6997 15.9264 19.8169 16.0326C19.9342 16.1389 20 16.283 20 16.4333C20 16.5836 19.9342 16.7278 19.8169 16.834C19.6997 16.9403 19.5408 17 19.375 17H0.625C0.45924 17 0.300269 16.9403 0.183058 16.834C0.0658481 16.7278 1.80807e-08 16.5836 1.80807e-08 16.4333C1.80807e-08 16.283 0.0658481 16.1389 0.183058 16.0326C0.300269 15.9264 0.45924 15.8667 0.625 15.8667H1.25V9.06667C1.25 8.91638 1.31585 8.77224 1.43306 8.66597C1.55027 8.5597 1.70924 8.5 1.875 8.5ZM4.375 9.06667C4.54076 9.06667 4.69973 9.12637 4.81694 9.23264C4.93415 9.33891 5 9.48304 5 9.63333V13.6H15V9.63333C15 9.48304 15.0658 9.33891 15.1831 9.23264C15.3003 9.12637 15.4592 9.06667 15.625 9.06667C15.7908 9.06667 15.9497 9.12637 16.0669 9.23264C16.1842 9.33891 16.25 9.48304 16.25 9.63333V13.6C16.25 13.9006 16.1183 14.1888 15.8839 14.4014C15.6495 14.6139 15.3315 14.7333 15 14.7333H5C4.66848 14.7333 4.35054 14.6139 4.11612 14.4014C3.8817 14.1888 3.75 13.9006 3.75 13.6V9.63333C3.75 9.48304 3.81585 9.33891 3.93306 9.23264C4.05027 9.12637 4.20924 9.06667 4.375 9.06667Z"/>
</mask>
<path d="M3.7125 0.396667C3.82986 0.272266 3.97555 0.172392 4.13954 0.103917C4.30354 0.0354411 4.48195 -1.07674e-05 4.6625 2.45308e-09H15.3375C15.5181 -1.07674e-05 15.6965 0.0354411 15.8605 0.103917C16.0245 0.172392 16.1701 0.272266 16.2875 0.396667L19.5487 3.84653C19.8399 4.15461 20 4.54695 20 4.95267V5.24167C20.0001 5.80264 19.8068 6.34961 19.4473 6.80614C19.0877 7.26267 18.5798 7.60594 17.9946 7.78798C17.4094 7.97001 16.776 7.98171 16.1831 7.82144C15.5901 7.66117 15.0673 7.33694 14.6875 6.89407C14.4102 7.21794 14.0548 7.47997 13.6485 7.66011C13.2423 7.84025 12.796 7.93371 12.3438 7.93333C11.8915 7.93379 11.4452 7.84037 11.0389 7.66023C10.6326 7.48008 10.2773 7.218 10 6.89407C9.72274 7.218 9.36736 7.48008 8.9611 7.66023C8.55485 7.84037 8.10849 7.93379 7.65625 7.93333C7.20401 7.93379 6.75765 7.84037 6.3514 7.66023C5.94514 7.48008 5.58976 7.218 5.3125 6.89407C4.93274 7.33694 4.40985 7.66117 3.81692 7.82144C3.22399 7.98171 2.59065 7.97001 2.00541 7.78798C1.42017 7.60594 0.912278 7.26267 0.552728 6.80614C0.193177 6.34961 -6.82482e-05 5.80264 1.80807e-08 5.24167V4.95267C1.57594e-05 4.54695 0.160071 4.15461 0.45125 3.84653L3.71375 0.395533L3.7125 0.396667ZM5.9375 5.24167C5.9375 5.65496 6.11858 6.05133 6.44091 6.34357C6.76324 6.63582 7.20041 6.8 7.65625 6.8C8.11209 6.8 8.54926 6.63582 8.87159 6.34357C9.19392 6.05133 9.375 5.65496 9.375 5.24167C9.375 5.09138 9.44085 4.94724 9.55806 4.84097C9.67527 4.7347 9.83424 4.675 10 4.675C10.1658 4.675 10.3247 4.7347 10.4419 4.84097C10.5592 4.94724 10.625 5.09138 10.625 5.24167C10.625 5.65496 10.8061 6.05133 11.1284 6.34357C11.4507 6.63582 11.8879 6.8 12.3438 6.8C12.7996 6.8 13.2368 6.63582 13.5591 6.34357C13.8814 6.05133 14.0625 5.65496 14.0625 5.24167C14.0625 5.09138 14.1283 4.94724 14.2456 4.84097C14.3628 4.7347 14.5217 4.675 14.6875 4.675C14.8533 4.675 15.0122 4.7347 15.1294 4.84097C15.2467 4.94724 15.3125 5.09138 15.3125 5.24167C15.3125 5.65496 15.4936 6.05133 15.8159 6.34357C16.1382 6.63582 16.5754 6.8 17.0312 6.8C17.4871 6.8 17.9243 6.63582 18.2466 6.34357C18.5689 6.05133 18.75 5.65496 18.75 5.24167V4.95267C18.75 4.8176 18.6968 4.68698 18.6 4.58433L15.3375 1.13333H4.6625L1.4 4.58433C1.30318 4.68698 1.24999 4.8176 1.25 4.95267V5.24167C1.25 5.65496 1.43108 6.05133 1.75341 6.34357C2.07574 6.63582 2.51291 6.8 2.96875 6.8C3.42459 6.8 3.86176 6.63582 4.18409 6.34357C4.50642 6.05133 4.6875 5.65496 4.6875 5.24167C4.6875 5.09138 4.75335 4.94724 4.87056 4.84097C4.98777 4.7347 5.14674 4.675 5.3125 4.675C5.47826 4.675 5.63723 4.7347 5.75444 4.84097C5.87165 4.94724 5.9375 5.09138 5.9375 5.24167ZM1.875 8.5C2.04076 8.5 2.19973 8.5597 2.31694 8.66597C2.43415 8.77224 2.5 8.91638 2.5 9.06667V15.8667H17.5V9.06667C17.5 8.91638 17.5658 8.77224 17.6831 8.66597C17.8003 8.5597 17.9592 8.5 18.125 8.5C18.2908 8.5 18.4497 8.5597 18.5669 8.66597C18.6842 8.77224 18.75 8.91638 18.75 9.06667V15.8667H19.375C19.5408 15.8667 19.6997 15.9264 19.8169 16.0326C19.9342 16.1389 20 16.283 20 16.4333C20 16.5836 19.9342 16.7278 19.8169 16.834C19.6997 16.9403 19.5408 17 19.375 17H0.625C0.45924 17 0.300269 16.9403 0.183058 16.834C0.0658481 16.7278 1.80807e-08 16.5836 1.80807e-08 16.4333C1.80807e-08 16.283 0.0658481 16.1389 0.183058 16.0326C0.300269 15.9264 0.45924 15.8667 0.625 15.8667H1.25V9.06667C1.25 8.91638 1.31585 8.77224 1.43306 8.66597C1.55027 8.5597 1.70924 8.5 1.875 8.5ZM4.375 9.06667C4.54076 9.06667 4.69973 9.12637 4.81694 9.23264C4.93415 9.33891 5 9.48304 5 9.63333V13.6H15V9.63333C15 9.48304 15.0658 9.33891 15.1831 9.23264C15.3003 9.12637 15.4592 9.06667 15.625 9.06667C15.7908 9.06667 15.9497 9.12637 16.0669 9.23264C16.1842 9.33891 16.25 9.48304 16.25 9.63333V13.6C16.25 13.9006 16.1183 14.1888 15.8839 14.4014C15.6495 14.6139 15.3315 14.7333 15 14.7333H5C4.66848 14.7333 4.35054 14.6139 4.11612 14.4014C3.8817 14.1888 3.75 13.9006 3.75 13.6V9.63333C3.75 9.48304 3.81585 9.33891 3.93306 9.23264C4.05027 9.12637 4.20924 9.06667 4.375 9.06667Z" fill="#EEEEEE" stroke="#EEEEEE" stroke-width="10" mask="url(#path-1-inside-1_138_323)"/>
</svg>
