<svg width="20" height="17" viewBox="0 0 20 17" fill="none" xmlns="http://www.w3.org/2000/svg">
<path d="M18 0.583344H2C1 0.583344 0 1.30607 0 2.1894V4.60653C0 5.18471 0.43 5.68259 1 5.96365V15.0379C1 15.9212 2.1 16.6439 3 16.6439H17C17.9 16.6439 19 15.9212 19 15.0379V5.96365C19.57 5.68259 20 5.18471 20 4.60653V2.1894C20 1.30607 19 0.583344 18 0.583344ZM12 10.2197H8C7.45 10.2197 7 9.85834 7 9.41668C7 8.97501 7.45 8.61365 8 8.61365H12C12.55 8.61365 13 8.97501 13 9.41668C13 9.85834 12.55 10.2197 12 10.2197ZM18 4.5985H2V2.1894H18V4.5985Z" fill="#EEEEEE"/>
</svg>
