<svg width="20" height="21" viewBox="0 0 20 21" fill="none" xmlns="http://www.w3.org/2000/svg">
<path d="M10 0.742432C4.477 0.742432 0 5.23639 0 10.7803C0 16.3242 4.477 20.8182 10 20.8182C15.523 20.8182 20 16.3242 20 10.7803C20 5.23639 15.523 0.742432 10 0.742432ZM10 19.3125C8.8837 19.3124 7.77834 19.0917 6.74704 18.6628C5.71573 18.2339 4.77868 17.6054 3.98939 16.813C3.20009 16.0206 2.574 15.0799 2.14687 14.0447C1.71974 13.0094 1.49993 11.8998 1.5 10.7793C1.50007 9.65878 1.72 8.54923 2.14725 7.51402C2.5745 6.47881 3.2007 5.53821 3.99009 4.74592C4.77948 3.95364 5.71661 3.32518 6.74796 2.89643C7.77931 2.46768 8.8847 2.24704 10.001 2.24711C12.2555 2.24724 14.4176 3.14635 16.0116 4.74663C17.6057 6.34692 18.5011 8.5173 18.501 10.7803C18.5009 13.0433 17.6052 15.2136 16.0109 16.8137C14.4167 18.4138 12.2545 19.3126 10 19.3125ZM10 11.2822C6.962 11.2822 4.5 13.0167 4.5 14.7955C4.5 16.5742 6.962 18.3087 10 18.3087C13.038 18.3087 15.5 16.5742 15.5 14.7955C15.5 13.0167 13.038 11.2822 10 11.2822ZM10 10.7803C10.7956 10.7803 11.5587 10.463 12.1213 9.8983C12.6839 9.33356 13 8.56761 13 7.76895C13 6.97028 12.6839 6.20433 12.1213 5.63959C11.5587 5.07485 10.7956 4.75758 10 4.75758C9.20435 4.75758 8.44129 5.07485 7.87868 5.63959C7.31607 6.20433 7 6.97028 7 7.76895C7 8.56761 7.31607 9.33356 7.87868 9.8983C8.44129 10.463 9.20435 10.7803 10 10.7803Z" fill="#EEEEEE"/>
</svg>
